<svg width="27" height="27" viewBox="0 0 27 27" fill="none" xmlns="http://www.w3.org/2000/svg">
<path fill-rule="evenodd" clip-rule="evenodd" d="M4.24049 1.94601L5.46792 1.70053C6.32077 1.52996 7.18609 1.93011 7.60847 2.6904L9.70237 6.45942C10.136 7.24001 9.99969 8.2135 9.36827 8.84492L7.95858 10.2546C7.30977 10.9042 7.18657 11.9121 7.66039 12.6985C8.45555 14.0206 9.38117 15.2096 10.4373 16.2657C11.4933 17.3218 12.6816 18.2466 14.0019 19.0401C14.7884 19.5118 15.795 19.388 16.4439 18.7399L17.8535 17.3302C18.485 16.6988 19.4585 16.5624 20.239 16.9961L24.0081 19.09C24.7684 19.5124 25.1685 20.3777 24.9979 21.2305L24.7525 22.458C24.6351 23.0442 24.2617 23.5472 23.7337 23.8275C18.7799 26.468 13.4042 24.8895 7.60658 19.0919C1.80898 13.2943 0.230442 7.91858 2.87098 2.96478C3.1513 2.43674 3.65429 2.06335 4.24049 1.94601Z" stroke="#464646" stroke-width="2" stroke-linecap="round" stroke-linejoin="round"/>
</svg>
